<svg id="SvgjsSvg1006" width="1064.5" height="644" xmlns="http://www.w3.org/2000/svg" version="1.1" xmlns:xlink="http://www.w3.org/1999/xlink" xmlns:svgjs="http://svgjs.com/svgjs"><defs id="SvgjsDefs1007"><pattern id="SvgjsPattern1014" x="0" y="0" width="71.5" height="71.5" patternUnits="userSpaceOnUse"><image id="SvgjsImage1015" xlink:href="https://cdn.processon.com/61af072f0e3e7463530180cf?e=1638864191&amp;amp;token=trhI0BY8QfVrIGn9nENop6JAc6l5nZuxhjQ62UfM:_EW2JOfhH-N8j-W3pAoWZeZOSdY=" width="71.5" height="71.5" preserveAspectRatio="none" crossOrigin="anonymous" x="0" y="0"></image></pattern><pattern id="SvgjsPattern1018" x="0" y="0" width="69.5" height="69.5" patternUnits="userSpaceOnUse"><image id="SvgjsImage1019" xlink:href="https://cdn.processon.com/61af07d71efad41d501ca524?e=1638864360&amp;amp;token=trhI0BY8QfVrIGn9nENop6JAc6l5nZuxhjQ62UfM:ZRd2P274j86v5hyvAresWejxcGA=" width="69.5" height="69.5" preserveAspectRatio="none" crossOrigin="anonymous" x="0" y="0"></image></pattern><pattern id="SvgjsPattern1022" x="0" y="0" width="67.5" height="69.5" patternUnits="userSpaceOnUse"><image id="SvgjsImage1023" xlink:href="https://cdn.processon.com/61af089de401fd21c03f70d9.svg?e=1638864557&amp;amp;token=trhI0BY8QfVrIGn9nENop6JAc6l5nZuxhjQ62UfM:ZCErJpy96A-pGkAxcDsIXN4uUYA=" width="67.5" height="69.5" preserveAspectRatio="none" crossOrigin="anonymous" x="0" y="0"></image></pattern><pattern id="SvgjsPattern1048" x="0" y="0" width="69.5" height="70" patternUnits="userSpaceOnUse"><image id="SvgjsImage1049" xlink:href="https://cdn.processon.com/61af0a097d9c086328f2673d?e=1638864922&amp;amp;token=trhI0BY8QfVrIGn9nENop6JAc6l5nZuxhjQ62UfM:7ofgMOqn0S6wA8rZxc7RVoD6lS0=" width="69.5" height="70" preserveAspectRatio="none" crossOrigin="anonymous" x="0" y="0"></image></pattern><pattern id="SvgjsPattern1052" x="0" y="0" width="86" height="98" patternUnits="userSpaceOnUse"><image id="SvgjsImage1053" xlink:href="https://cdn.processon.com/61af0a210e3e74635301ee1c?e=1638864946&amp;amp;token=trhI0BY8QfVrIGn9nENop6JAc6l5nZuxhjQ62UfM:EaiXkrhrQfTeIOG4xzXITXEbHZU=" width="86" height="98" preserveAspectRatio="none" crossOrigin="anonymous" x="0" y="0"></image></pattern><marker id="SvgjsMarker1056" markerWidth="14" markerHeight="10" refX="10" refY="5" viewBox="0 0 14 10" orient="auto" markerUnits="userSpaceOnUse" stroke-dasharray="0,0"><path id="SvgjsPath1057" d="M0,0 L14,5 L0,10 L0,0" fill="#323232" stroke="#323232" stroke-width="1"></path></marker><marker id="SvgjsMarker1060" markerWidth="14" markerHeight="10" refX="10" refY="5" viewBox="0 0 14 10" orient="auto" markerUnits="userSpaceOnUse" stroke-dasharray="0,0"><path id="SvgjsPath1061" d="M0,0 L14,5 L0,10 L0,0" fill="#323232" stroke="#323232" stroke-width="1"></path></marker><marker id="SvgjsMarker1064" markerWidth="14" markerHeight="10" refX="10" refY="5" viewBox="0 0 14 10" orient="auto" markerUnits="userSpaceOnUse" stroke-dasharray="0,0"><path id="SvgjsPath1065" d="M0,0 L14,5 L0,10 L0,0" fill="#323232" stroke="#323232" stroke-width="1"></path></marker><marker id="SvgjsMarker1068" markerWidth="14" markerHeight="10" refX="10" refY="5" viewBox="0 0 14 10" orient="auto" markerUnits="userSpaceOnUse" stroke-dasharray="0,0"><path id="SvgjsPath1069" d="M0,0 L14,5 L0,10 L0,0" fill="#323232" stroke="#323232" stroke-width="1"></path></marker><marker id="SvgjsMarker1084" markerWidth="14" markerHeight="10" refX="10" refY="5" viewBox="0 0 14 10" orient="auto" markerUnits="userSpaceOnUse" stroke-dasharray="0,0"><path id="SvgjsPath1085" d="M0,0 L14,5 L0,10 L0,0" fill="#323232" stroke="#323232" stroke-width="1"></path></marker><marker id="SvgjsMarker1088" markerWidth="14" markerHeight="10" refX="10" refY="5" viewBox="0 0 14 10" orient="auto" markerUnits="userSpaceOnUse" stroke-dasharray="0,0"><path id="SvgjsPath1089" d="M0,0 L14,5 L0,10 L0,0" fill="#323232" stroke="#323232" stroke-width="1"></path></marker></defs><g id="SvgjsG1008" transform="translate(47.5,237)"><path id="SvgjsPath1009" d="M 0 0L 256 0L 256 304L 0 304Z" stroke-dasharray="10,6" stroke="rgba(50,50,50,1)" stroke-width="2" fill-opacity="1" fill="#ffffff"></path><g id="SvgjsG1010"><text id="SvgjsText1011" font-family="微软雅黑" text-anchor="middle" font-size="13px" width="236px" fill="#ff9800" font-weight="400" align="middle" lineHeight="125%" anchor="middle" family="微软雅黑" size="13px" weight="400" font-style="" opacity="1" y="142.375" transform="rotate(0)"></text></g></g><g id="SvgjsG1012" transform="translate(967.5,25)"><path id="SvgjsPath1013" d="M 0 0L 71.5 0L 71.5 71.5L 0 71.5Z" stroke="none" fill="url(#SvgjsPattern1014)"></path></g><g id="SvgjsG1016" transform="translate(179,26)"><path id="SvgjsPath1017" d="M 0 0L 69.5 0L 69.5 69.5L 0 69.5Z" stroke="none" fill="url(#SvgjsPattern1018)"></path></g><g id="SvgjsG1020" transform="translate(25,26)"><path id="SvgjsPath1021" d="M 0 0L 67.5 0L 67.5 69.5L 0 69.5Z" stroke="none" fill="url(#SvgjsPattern1022)"></path></g><g id="SvgjsG1024" transform="translate(480.5,209)"><path id="SvgjsPath1025" d="M 0 4Q 0 0 4 0L 285.5 0Q 289.5 0 289.5 4L 289.5 406Q 289.5 410 285.5 410L 4 410Q 0 410 0 406Z" stroke="rgba(50,50,50,1)" stroke-width="2" fill-opacity="1" fill="#ffffff"></path><g id="SvgjsG1026"><text id="SvgjsText1027" font-family="微软雅黑" text-anchor="middle" font-size="13px" width="270px" fill="#323232" font-weight="400" align="middle" lineHeight="125%" anchor="middle" family="微软雅黑" size="13px" weight="400" font-style="" opacity="1" y="195.375" transform="rotate(0)"></text></g></g><g id="SvgjsG1028" transform="translate(509,353.75)"><path id="SvgjsPath1029" d="M 0 0L 232.5 0L 232.5 90L 0 90Z" stroke="rgba(50,50,50,1)" stroke-width="2" fill-opacity="1" fill="#ffeb3b"></path><g id="SvgjsG1030"><text id="SvgjsText1031" font-family="微软雅黑" text-anchor="middle" font-size="13px" width="213px" fill="#323232" font-weight="400" align="middle" lineHeight="125%" anchor="middle" family="微软雅黑" size="13px" weight="400" font-style="" opacity="1" y="35.375" transform="rotate(0)"><tspan id="SvgjsTspan1032" dy="16" x="116.5"><tspan id="SvgjsTspan1033" style="text-decoration:;">覆盖率存储</tspan></tspan></text></g></g><g id="SvgjsG1034" transform="translate(509,471)"><path id="SvgjsPath1035" d="M 0 0L 232.5 0L 232.5 88L 0 88Z" stroke="rgba(50,50,50,1)" stroke-width="2" fill-opacity="1" fill="#ffeb3b"></path><g id="SvgjsG1036"><text id="SvgjsText1037" font-family="微软雅黑" text-anchor="middle" font-size="13px" width="213px" fill="#323232" font-weight="400" align="middle" lineHeight="125%" anchor="middle" family="微软雅黑" size="13px" weight="400" font-style="" opacity="1" y="34.375" transform="rotate(0)"><tspan id="SvgjsTspan1038" dy="16" x="116.5"><tspan id="SvgjsTspan1039" style="text-decoration:;">覆盖率报告生成</tspan></tspan></text></g></g><g id="SvgjsG1040" transform="translate(509,237)"><path id="SvgjsPath1041" d="M 0 0L 232.5 0L 232.5 89.5L 0 89.5Z" stroke="rgba(50,50,50,1)" stroke-width="2" fill-opacity="1" fill="#ffeb3b"></path><g id="SvgjsG1042"><text id="SvgjsText1043" font-family="微软雅黑" text-anchor="middle" font-size="13px" width="213px" fill="#323232" font-weight="400" align="middle" lineHeight="125%" anchor="middle" family="微软雅黑" size="13px" weight="400" font-style="" opacity="1" y="35.125" transform="rotate(0)"><tspan id="SvgjsTspan1044" dy="16" x="116.5"><tspan id="SvgjsTspan1045" style="text-decoration:;">拉取git仓库代码</tspan></tspan></text></g></g><g id="SvgjsG1046" transform="translate(969.5,471)"><path id="SvgjsPath1047" d="M 0 0L 69.5 0L 69.5 70L 0 70Z" stroke="none" fill="url(#SvgjsPattern1048)"></path></g><g id="SvgjsG1050" transform="translate(348.5,466)"><path id="SvgjsPath1051" d="M 0 0L 86 0L 86 98L 0 98Z" stroke="none" fill="url(#SvgjsPattern1052)"></path></g><g id="SvgjsG1054"><path id="SvgjsPath1055" d="M58.75 96.5L58.75 152.25L625.25 152.25L625.25 205.4" stroke="#323232" stroke-width="2" fill="none" marker-end="url(#SvgjsMarker1056)"></path></g><g id="SvgjsG1058"><path id="SvgjsPath1059" d="M213.75 96.5L213.75 152.25L625.25 152.25L625.25 205.4" stroke="#323232" stroke-width="2" fill="none" marker-end="url(#SvgjsMarker1060)"></path></g><g id="SvgjsG1062"><path id="SvgjsPath1063" d="M1003.25 97.5L1003.25 281.75L745.1 281.75" stroke="#323232" stroke-width="2" fill="none" marker-end="url(#SvgjsMarker1064)"></path></g><g id="SvgjsG1066"><path id="SvgjsPath1067" d="M742.5 398.75L855.5 398.75L855.5 506L965.9 506" stroke="#323232" stroke-width="2" fill="none" marker-end="url(#SvgjsMarker1068)"></path></g><g id="SvgjsG1070" transform="translate(332.25,338)"><path id="SvgjsPath1071" d="M 0 40.5L 40.5 0L 40.5 26.73L 129.5 26.73L 129.5 54.27L 40.5 54.27L 40.5 81L 0 40.5Z" stroke="rgba(50,50,50,1)" stroke-width="2" fill-opacity="1" fill="#ffffff"></path><g id="SvgjsG1072"><text id="SvgjsText1073" font-family="微软雅黑" text-anchor="middle" font-size="13px" width="130px" fill="#323232" font-weight="400" align="middle" lineHeight="125%" anchor="middle" family="微软雅黑" size="13px" weight="400" font-style="" opacity="1" y="30.875" transform="rotate(0)"><tspan id="SvgjsTspan1074" dy="16" x="65"><tspan id="SvgjsTspan1075" style="text-decoration:;">数据分析聚合</tspan></tspan></text></g></g><g id="SvgjsG1076" transform="translate(69,253)"><path id="SvgjsPath1077" d="M 0 4Q 0 0 4 0L 212 0Q 216 0 216 4L 216 267Q 216 271 212 271L 4 271Q 0 271 0 267Z" stroke="rgba(50,50,50,1)" stroke-width="2" fill-opacity="1" fill="#4caf50"></path><g id="SvgjsG1078"><text id="SvgjsText1079" font-family="微软雅黑" text-anchor="middle" font-size="13px" width="196px" fill="#323232" font-weight="400" align="middle" lineHeight="125%" anchor="middle" family="微软雅黑" size="13px" weight="400" font-style="" opacity="1" y="125.875" transform="rotate(0)"><tspan id="SvgjsTspan1080" dy="16" x="108"><tspan id="SvgjsTspan1081" style="text-decoration:;">前端代码覆盖率展示平台</tspan></tspan></text></g></g><g id="SvgjsG1082"><path id="SvgjsPath1083" d="M508 515L471.75 515L471.75 515L438.1 515" stroke="#323232" stroke-width="2" fill="none" marker-end="url(#SvgjsMarker1084)"></path></g><g id="SvgjsG1086"><path id="SvgjsPath1087" d="M175.5 542L175.5 594L391.5 594L391.5 567.6" stroke="#323232" stroke-width="2" fill="none" marker-end="url(#SvgjsMarker1088)"></path><rect id="SvgjsRect1090" width="26" height="32" x="257.7" y="578" fill="#ffffff"></rect><text id="SvgjsText1091" font-family="微软雅黑" text-anchor="middle" font-size="13px" width="26px" fill="#323232" font-weight="400" align="top" lineHeight="16px" anchor="middle" family="微软雅黑" size="13px" weight="400" font-style="" opacity="1" y="576.375" transform="rotate(0)"><tspan id="SvgjsTspan1092" dy="16" x="270.7"><tspan id="SvgjsTspan1093" style="text-decoration:;">报告</tspan></tspan><tspan id="SvgjsTspan1094" dy="16" x="270.7"><tspan id="SvgjsTspan1095" style="text-decoration:;">展示</tspan></tspan></text></g><g id="SvgjsG1096" transform="translate(60.5,95.5)"><path id="SvgjsPath1097" d="M 0 0L 83 0L 83 22L 0 22Z" stroke="none" fill="none"></path><g id="SvgjsG1098"><text id="SvgjsText1099" font-family="微软雅黑" text-anchor="middle" font-size="13px" width="83px" fill="#323232" font-weight="400" align="middle" lineHeight="125%" anchor="middle" family="微软雅黑" size="13px" weight="400" font-style="" opacity="1" y="1.375" transform="rotate(0)"><tspan id="SvgjsTspan1100" dy="16" x="41.5"><tspan id="SvgjsTspan1101" style="text-decoration:;">UI自动化测试</tspan></tspan></text></g></g><g id="SvgjsG1102" transform="translate(219.5,96.5)"><path id="SvgjsPath1103" d="M 0 0L 61 0L 61 20L 0 20Z" stroke="none" fill="none"></path><g id="SvgjsG1104"><text id="SvgjsText1105" font-family="微软雅黑" text-anchor="middle" font-size="13px" width="61px" fill="#323232" font-weight="400" align="middle" lineHeight="125%" anchor="middle" family="微软雅黑" size="13px" weight="400" font-style="" opacity="1" y="0.375" transform="rotate(0)"><tspan id="SvgjsTspan1106" dy="16" x="30.5"><tspan id="SvgjsTspan1107" style="text-decoration:;">手工测试</tspan></tspan></text></g></g><g id="SvgjsG1108" transform="translate(348.5,126)"><path id="SvgjsPath1109" d="M 0 0L 136 0L 136 22L 0 22Z" stroke="none" fill="none"></path><g id="SvgjsG1110"><text id="SvgjsText1111" font-family="微软雅黑" text-anchor="middle" font-size="13px" width="136px" fill="#323232" font-weight="400" align="middle" lineHeight="125%" anchor="middle" family="微软雅黑" size="13px" weight="400" font-style="" opacity="1" y="1.375" transform="rotate(0)"><tspan id="SvgjsTspan1112" dy="16" x="68"><tspan id="SvgjsTspan1113" style="text-decoration:;">覆盖率上报</tspan></tspan></text></g></g><g id="SvgjsG1114" transform="translate(816.5,79.5)"><path id="SvgjsPath1115" d="M 0 0L 184 0L 184 37L 0 37Z" stroke="none" fill="none"></path><g id="SvgjsG1116"><text id="SvgjsText1117" font-family="微软雅黑" text-anchor="middle" font-size="13px" width="184px" fill="#323232" font-weight="400" align="middle" lineHeight="125%" anchor="middle" family="微软雅黑" size="13px" weight="400" font-style="" opacity="1" y="8.875" transform="rotate(0)"><tspan id="SvgjsTspan1118" dy="16" x="92"><tspan id="SvgjsTspan1119" style="text-decoration:;">拉取代码用于覆盖率详情展示</tspan></tspan></text></g></g><g id="SvgjsG1120" transform="translate(562.5,573)"><path id="SvgjsPath1121" d="M 0 0L 115 0L 115 29L 0 29Z" stroke="none" fill="none"></path><g id="SvgjsG1122"><text id="SvgjsText1123" font-family="微软雅黑" text-anchor="middle" font-size="13px" width="115px" fill="#323232" font-weight="400" align="middle" lineHeight="125%" anchor="middle" family="微软雅黑" size="13px" weight="400" font-style="" opacity="1" y="4.875" transform="rotate(0)"><tspan id="SvgjsTspan1124" dy="16" x="57.5"><tspan id="SvgjsTspan1125" style="text-decoration:;">islin服务端</tspan></tspan></text></g></g></svg>